PathFileType	3	(X/Y/Z)	squats_1__view2_aligned.trc
DataRate	CameraRate	NumFrames	NumMarkers	Units	OrigDataRate	OrigDataStartFrame	OrigNumFrames
100.0	100.0	10	19	mm	100.0	1368	1660
Frame#	Time	pelvis			neck			head			hip_left			hip_right			knee_left			knee_right			ankle_left			ankle_right			heel_left			heel_right			toe_left			toe_right			shoulder_left			shoulder_right			elbow_left			elbow_right			wrist_left			wrist_right			
		X1	Y1	Z1	X2	Y2	Z2	X3	Y3	Z3	X4	Y4	Z4	X5	Y5	Z5	X6	Y6	Z6	X7	Y7	Z7	X8	Y8	Z8	X9	Y9	Z9	X10	Y10	Z10	X11	Y11	Z11	X12	Y12	Z12	X13	Y13	Z13	X14	Y14	Z14	X15	Y15	Z15	X16	Y16	Z16	X17	Y17	Z17	X18	Y18	Z18	X19	Y19	Z19	
1368	13.67000	50.809663	725.623546	105.620139	40.917717	1214.692187	-144.271619	26.854674	1348.936183	-259.279846	-23.636901	722.548879	109.699803	125.256573	728.698216	101.540529	-120.437338	457.267108	-175.496274	188.655430	399.263547	-133.005086	-96.041042	160.022380	70.614634	198.309428	66.913730	69.961813	-91.679804	127.638868	117.776077	195.591423	33.585479	116.812250	-92.225234	77.259214	-86.626257	217.654085	-32.491184	-84.723735	-128.707894	1173.732170	-93.197734	216.420030	1157.799006	-125.467334	-213.336819	906.311725	-88.591771	314.510294	895.569687	-114.263376	-199.108488	705.121492	-214.419282	278.099031	699.813853	-245.187840
1369	13.68000	53.016961	736.326337	103.087580	42.382872	1227.408741	-144.004719	28.130846	1362.042747	-258.787656	-21.435708	733.125107	107.496634	127.469954	739.527569	98.678575	-117.812514	460.216247	-170.771008	188.897324	406.641643	-132.096122	-93.198964	160.110836	71.536313	200.339603	73.107441	68.974309	-88.716811	127.388888	118.424677	197.981450	39.519952	115.652456	-89.602306	77.701685	-86.264671	218.559089	-25.366996	-86.490832	-127.043327	1186.131780	-92.692211	217.757815	1170.133900	-124.947647	-210.490925	918.126123	-85.256781	315.400276	907.408812	-111.562459	-199.733257	712.983853	-206.958717	282.210062	707.711124	-239.310298
1370	13.69000	55.224260	747.029128	100.555022	43.848026	1240.125294	-143.737819	29.407019	1375.149312	-258.295466	-19.234515	743.701336	105.293464	129.683335	750.356922	95.816622	-115.187691	463.165386	-166.045742	189.139217	414.019739	-131.187157	-90.356886	160.199292	72.457991	202.369779	79.301151	67.986805	-85.753818	127.138908	119.073278	200.371476	45.454425	114.492662	-86.979378	78.144155	-85.903084	219.464094	-18.242809	-88.257930	-125.378760	1198.531390	-92.186688	219.095601	1182.468793	-124.427960	-207.645030	929.940521	-81.921791	316.290258	919.247938	-108.861542	-200.358026	720.846214	-199.498153	286.321093	715.608395	-233.432757
1371	13.70000	57.431558	757.731918	98.022463	45.313181	1252.841848	-143.470919	30.683192	1388.255876	-257.803277	-17.033322	754.277564	103.090295	131.896716	761.186275	92.954668	-112.562868	466.114525	-161.320476	189.381110	421.397835	-130.278193	-87.514808	160.287748	73.379669	204.399954	85.494862	66.999301	-82.790825	126.888928	119.721878	202.761503	51.388898	113.332868	-84.356449	78.586626	-85.541497	220.369098	-11.118621	-90.025028	-123.714192	1210.931000	-91.681165	220.433386	1194.803686	-123.908273	-204.799136	941.754919	-78.586800	317.180240	931.087064	-106.160626	-200.982795	728.708575	-192.037588	290.432123	723.505666	-227.555216
1372	13.71000	59.638857	768.434709	95.489904	46.778335	1265.558401	-143.204019	31.959365	1401.362441	-257.311087	-14.832129	764.853793	100.887126	134.110097	772.015628	90.092715	-109.938045	469.063663	-156.595210	189.623003	428.775930	-129.369229	-84.672730	160.376204	74.301348	206.430130	91.688572	66.011796	-79.827833	126.638947	120.370479	205.151530	57.323371	112.173074	-81.733521	79.029097	-85.179911	221.274103	-3.994433	-91.792126	-122.049625	1223.330611	-91.175642	221.771172	1207.138579	-123.388586	-201.953242	953.569316	-75.251810	318.070222	942.926189	-103.459709	-201.607564	736.570936	-184.577024	294.543154	731.402937	-221.677675
1373	13.72000	61.846155	779.137500	92.957346	48.243490	1278.274955	-142.937118	33.235538	1414.469006	-256.818897	-12.630936	775.430021	98.683956	136.323478	782.844981	87.230761	-107.313221	472.012802	-151.869945	189.864896	436.154026	-128.460264	-81.830652	160.464660	75.223026	208.460305	97.882283	65.024292	-76.864840	126.388967	121.019079	207.541556	63.257844	111.013281	-79.110593	79.471568	-84.818324	222.179107	3.129754	-93.559223	-120.385058	1235.730221	-90.670118	223.108957	1219.473472	-122.868899	-199.107348	965.383714	-71.916820	318.960204	954.765315	-100.758792	-202.232333	744.433297	-177.116459	298.654184	739.300207	-215.800134
1374	13.73000	64.109171	787.914819	90.129674	49.802816	1289.029587	-141.970317	34.542269	1425.400879	-255.651279	-10.363164	784.091715	96.121252	138.581739	791.737926	84.138124	-103.865228	474.728264	-146.162405	190.858728	440.516490	-125.433830	-78.537943	160.153670	76.431969	210.924852	100.495087	65.308411	-73.456451	125.685313	121.905178	210.262388	65.557072	111.056389	-76.298244	79.648846	-84.287438	223.912278	6.588367	-93.919179	-118.668259	1246.205197	-89.636097	224.664875	1230.078838	-121.815193	-196.275569	975.611965	-68.049809	320.397578	965.212395	-97.770654	-202.205508	751.895963	-169.210426	303.518651	746.632876	-209.737501
1375	13.74000	66.372188	796.692139	87.302003	51.362143	1299.784218	-141.003516	35.849000	1436.332753	-254.483662	-8.095393	792.753409	93.558547	140.840000	800.630870	81.045487	-100.417234	477.443725	-140.454865	191.852560	444.878955	-122.407395	-75.245235	159.842681	77.640911	213.389399	103.107891	65.592530	-70.048063	124.981659	122.791277	212.983220	67.856299	111.099497	-73.485894	79.826124	-83.756552	225.645449	10.046979	-94.279135	-116.951460	1256.680173	-88.602075	226.220792	1240.684204	-120.761487	-193.443790	985.840216	-64.182798	321.834953	975.659475	-94.782515	-202.178683	759.358629	-161.304392	308.383118	753.965544	-203.674869
1376	13.75000	68.635204	805.469458	84.474332	52.921469	1310.538850	-140.036714	37.155730	1447.264626	-253.316044	-5.827622	801.415103	90.995843	143.098262	809.523815	77.952850	-96.969241	480.159186	-134.747325	192.846392	449.241419	-119.380960	-71.952526	159.531692	78.849854	215.853946	105.720695	65.876648	-66.639674	124.278005	123.677376	215.704052	70.155526	111.142605	-70.673545	80.003401	-83.225665	227.378620	13.505592	-94.639092	-115.234661	1267.155149	-87.568054	227.776710	1251.289570	-119.707781	-190.612012	996.068466	-60.315787	323.272328	986.106555	-91.794377	-202.151858	766.821294	-153.398359	313.247585	761.298213	-197.612237
1377	13.76000	70.898220	814.246777	81.646661	54.480795	1321.293482	-139.069913	38.462461	1458.196500	-252.148426	-3.559851	810.076796	88.433138	145.356523	818.416760	74.860213	-93.521248	482.874647	-129.039786	193.840224	453.603883	-116.354525	-68.659817	159.220703	80.058797	218.318493	108.333499	66.160767	-63.231285	123.574351	124.563475	218.424884	72.454754	111.185714	-67.861195	80.180679	-82.694779	229.111791	16.964205	-94.999048	-113.517862	1277.630125	-86.534032	229.332628	1261.894936	-118.654075	-187.780233	1006.296717	-56.448776	324.709702	996.553635	-88.806239	-202.125033	774.283960	-145.492325	318.112051	768.630881	-191.549605
